<svg width="40" height="40" viewBox="0 0 40 40" fill="none" xmlns="http://www.w3.org/2000/svg">
<path d="M31.6667 18.3333H13.05L21.1833 10.2C21.8334 9.54999 21.8334 8.48332 21.1833 7.83332C21.0292 7.67882 20.846 7.55624 20.6444 7.4726C20.4428 7.38897 20.2266 7.34592 20.0084 7.34592C19.7901 7.34592 19.5739 7.38897 19.3723 7.4726C19.1707 7.55624 18.9875 7.67882 18.8334 7.83332L7.85002 18.8167C7.69551 18.9708 7.57293 19.154 7.4893 19.3556C7.40566 19.5572 7.36261 19.7734 7.36261 19.9917C7.36261 20.2099 7.40566 20.4261 7.4893 20.6277C7.57293 20.8293 7.69551 21.0125 7.85002 21.1667L18.8334 32.15C18.9877 32.3043 19.1708 32.4267 19.3724 32.5102C19.5741 32.5937 19.7901 32.6367 20.0084 32.6367C20.2266 32.6367 20.4426 32.5937 20.6443 32.5102C20.8459 32.4267 21.029 32.3043 21.1833 32.15C21.3377 31.9957 21.4601 31.8125 21.5436 31.6109C21.6271 31.4093 21.6701 31.1932 21.6701 30.975C21.6701 30.7568 21.6271 30.5407 21.5436 30.3391C21.4601 30.1375 21.3377 29.9543 21.1833 29.8L13.05 21.6667H31.6667C32.5833 21.6667 33.3333 20.9167 33.3333 20C33.3333 19.0833 32.5833 18.3333 31.6667 18.3333Z" fill="white"/>
</svg>
