<svg width="226" height="48" viewBox="0 0 226 48" fill="none" xmlns="http://www.w3.org/2000/svg">
<path d="M19.06 38.52C15.2467 38.52 11.9707 37.7573 9.232 36.232C6.528 34.672 4.448 32.488 2.992 29.68C1.536 26.8373 0.808 23.492 0.808 19.644C0.808 16.7667 1.224 14.184 2.056 11.896C2.888 9.57333 4.084 7.59733 5.644 5.968C7.204 4.304 9.11067 3.03867 11.364 2.172C13.652 1.27067 16.2173 0.819998 19.06 0.819998C20.9667 0.819998 22.8387 1.06266 24.676 1.548C26.5133 2.03333 28.1253 2.72667 29.512 3.628C30.24 4.07867 30.7253 4.63333 30.968 5.292C31.2107 5.916 31.2627 6.54 31.124 7.164C30.9853 7.75333 30.6907 8.256 30.24 8.672C29.824 9.088 29.2867 9.33066 28.628 9.4C28.004 9.43467 27.3107 9.20933 26.548 8.724C25.4733 8.03067 24.312 7.528 23.064 7.216C21.816 6.904 20.5507 6.748 19.268 6.748C16.8067 6.748 14.7267 7.25067 13.028 8.256C11.3293 9.26133 10.0467 10.7173 9.18 12.624C8.31333 14.5307 7.88 16.8707 7.88 19.644C7.88 22.3827 8.31333 24.7227 9.18 26.664C10.0467 28.6053 11.3293 30.0787 13.028 31.084C14.7267 32.0893 16.8067 32.592 19.268 32.592C20.5853 32.592 21.8853 32.436 23.168 32.124C24.4507 31.7773 25.664 31.2573 26.808 30.564C27.5707 30.1133 28.2467 29.9227 28.836 29.992C29.46 30.0267 29.98 30.2347 30.396 30.616C30.812 30.9973 31.0893 31.4827 31.228 32.072C31.3667 32.6267 31.332 33.216 31.124 33.84C30.916 34.4293 30.5 34.9493 29.876 35.4C28.4893 36.4053 26.8253 37.1853 24.884 37.74C22.9773 38.26 21.036 38.52 19.06 38.52ZM39.9478 38.416C38.9078 38.416 38.1104 38.1387 37.5558 37.584C37.0011 36.9947 36.7238 36.1627 36.7238 35.088V4.2C36.7238 3.12533 37.0011 2.31066 37.5558 1.756C38.1104 1.20133 38.9078 0.923997 39.9478 0.923997C40.9878 0.923997 41.7851 1.20133 42.3398 1.756C42.9291 2.31066 43.2238 3.12533 43.2238 4.2V17.668H42.4958C43.2584 15.8307 44.4371 14.444 46.0318 13.508C47.6611 12.5373 49.4984 12.052 51.5438 12.052C53.5891 12.052 55.2704 12.4333 56.5878 13.196C57.9051 13.9587 58.8931 15.12 59.5518 16.68C60.2104 18.2053 60.5398 20.1467 60.5398 22.504V35.088C60.5398 36.1627 60.2624 36.9947 59.7078 37.584C59.1531 38.1387 58.3558 38.416 57.3158 38.416C56.2758 38.416 55.4611 38.1387 54.8718 37.584C54.3171 36.9947 54.0398 36.1627 54.0398 35.088V22.816C54.0398 20.84 53.6584 19.4013 52.8958 18.5C52.1678 17.5987 51.0238 17.148 49.4638 17.148C47.5571 17.148 46.0318 17.7547 44.8878 18.968C43.7784 20.1467 43.2238 21.724 43.2238 23.7V35.088C43.2238 37.3067 42.1318 38.416 39.9478 38.416ZM75.5137 38.52C73.6764 38.52 72.0297 38.1733 70.5737 37.48C69.1524 36.752 68.0257 35.7813 67.1937 34.568C66.3964 33.3547 65.9977 31.9853 65.9977 30.46C65.9977 28.588 66.4831 27.1147 67.4537 26.04C68.4244 24.9307 70.0017 24.1333 72.1857 23.648C74.3697 23.1627 77.2991 22.92 80.9737 22.92H83.5737V26.664H81.0257C78.8764 26.664 77.1604 26.768 75.8777 26.976C74.5951 27.184 73.6764 27.548 73.1217 28.068C72.6017 28.5533 72.3417 29.2467 72.3417 30.148C72.3417 31.292 72.7404 32.228 73.5377 32.956C74.3351 33.684 75.4444 34.048 76.8657 34.048C78.0097 34.048 79.0151 33.788 79.8817 33.268C80.7831 32.7133 81.4937 31.968 82.0137 31.032C82.5337 30.096 82.7937 29.0213 82.7937 27.808V21.828C82.7937 20.0947 82.4124 18.8467 81.6497 18.084C80.8871 17.3213 79.6044 16.94 77.8017 16.94C76.7964 16.94 75.7044 17.0613 74.5257 17.304C73.3817 17.5467 72.1684 17.9627 70.8857 18.552C70.2271 18.864 69.6377 18.9507 69.1177 18.812C68.6324 18.6733 68.2511 18.396 67.9737 17.98C67.6964 17.5293 67.5577 17.044 67.5577 16.524C67.5577 16.004 67.6964 15.5013 67.9737 15.016C68.2511 14.496 68.7191 14.1147 69.3777 13.872C70.9724 13.2133 72.4977 12.7453 73.9537 12.468C75.4444 12.1907 76.7964 12.052 78.0097 12.052C80.5057 12.052 82.5511 12.4333 84.1457 13.196C85.7751 13.9587 86.9884 15.12 87.7857 16.68C88.5831 18.2053 88.9817 20.1813 88.9817 22.608V35.088C88.9817 36.1627 88.7217 36.9947 88.2017 37.584C87.6817 38.1387 86.9364 38.416 85.9657 38.416C84.9951 38.416 84.2324 38.1387 83.6777 37.584C83.1577 36.9947 82.8977 36.1627 82.8977 35.088V32.592H83.3137C83.0711 33.8053 82.5857 34.8627 81.8577 35.764C81.1644 36.6307 80.2804 37.3067 79.2057 37.792C78.1311 38.2773 76.9004 38.52 75.5137 38.52ZM107.227 38.52C104.974 38.52 103.085 38.1387 101.559 37.376C100.069 36.6133 98.9592 35.504 98.2312 34.048C97.5032 32.5573 97.1392 30.72 97.1392 28.536V17.46H94.4352C93.6032 17.46 92.9619 17.252 92.5112 16.836C92.0606 16.3853 91.8352 15.7787 91.8352 15.016C91.8352 14.2187 92.0606 13.612 92.5112 13.196C92.9619 12.78 93.6032 12.572 94.4352 12.572H97.1392V7.84C97.1392 6.76533 97.4166 5.95067 97.9712 5.396C98.5606 4.84133 99.3752 4.564 100.415 4.564C101.455 4.564 102.253 4.84133 102.807 5.396C103.362 5.95067 103.639 6.76533 103.639 7.84V12.572H109.151C109.983 12.572 110.625 12.78 111.075 13.196C111.526 13.612 111.751 14.2187 111.751 15.016C111.751 15.7787 111.526 16.3853 111.075 16.836C110.625 17.252 109.983 17.46 109.151 17.46H103.639V28.172C103.639 29.836 104.003 31.084 104.731 31.916C105.459 32.748 106.638 33.164 108.267 33.164C108.857 33.164 109.377 33.112 109.827 33.008C110.278 32.904 110.677 32.8347 111.023 32.8C111.439 32.7653 111.786 32.904 112.063 33.216C112.341 33.4933 112.479 34.0827 112.479 34.984C112.479 35.6773 112.358 36.3013 112.115 36.856C111.907 37.376 111.509 37.74 110.919 37.948C110.469 38.0867 109.879 38.208 109.151 38.312C108.423 38.4507 107.782 38.52 107.227 38.52ZM130.641 38.416C129.809 38.416 129.133 38.2253 128.613 37.844C128.128 37.4627 127.833 36.96 127.729 36.336C127.625 35.6773 127.747 34.9493 128.093 34.152L141.821 3.732C142.272 2.72667 142.809 2.016 143.433 1.6C144.092 1.14933 144.837 0.923997 145.669 0.923997C146.467 0.923997 147.177 1.14933 147.801 1.6C148.46 2.016 149.015 2.72667 149.465 3.732L163.245 34.152C163.627 34.9493 163.765 35.6773 163.661 36.336C163.557 36.9947 163.263 37.5147 162.777 37.896C162.292 38.2427 161.651 38.416 160.853 38.416C159.883 38.416 159.12 38.1907 158.565 37.74C158.045 37.2547 157.577 36.5267 157.161 35.556L153.781 27.704L156.589 29.524H134.645L137.453 27.704L134.125 35.556C133.675 36.5613 133.207 37.2893 132.721 37.74C132.236 38.1907 131.543 38.416 130.641 38.416ZM145.565 8.568L138.285 25.884L136.933 24.22H154.301L153.001 25.884L145.669 8.568H145.565ZM171.573 47.776C170.533 47.776 169.735 47.4987 169.181 46.944C168.626 46.3893 168.349 45.5747 168.349 44.5V15.432C168.349 14.3573 168.626 13.5427 169.181 12.988C169.735 12.4333 170.515 12.156 171.521 12.156C172.561 12.156 173.358 12.4333 173.913 12.988C174.467 13.5427 174.745 14.3573 174.745 15.432V19.488L174.173 17.928C174.693 16.16 175.75 14.7387 177.345 13.664C178.974 12.5893 180.863 12.052 183.013 12.052C185.231 12.052 187.173 12.5893 188.837 13.664C190.535 14.7387 191.853 16.264 192.789 18.24C193.725 20.1813 194.193 22.5213 194.193 25.26C194.193 27.964 193.725 30.3213 192.789 32.332C191.853 34.308 190.553 35.8333 188.889 36.908C187.225 37.9827 185.266 38.52 183.013 38.52C180.898 38.52 179.043 38 177.449 36.96C175.854 35.8853 174.779 34.4987 174.225 32.8H174.849V44.5C174.849 45.5747 174.554 46.3893 173.965 46.944C173.41 47.4987 172.613 47.776 171.573 47.776ZM181.193 33.58C182.475 33.58 183.602 33.268 184.573 32.644C185.543 32.02 186.289 31.1013 186.809 29.888C187.363 28.64 187.641 27.0973 187.641 25.26C187.641 22.4867 187.051 20.424 185.873 19.072C184.694 17.6853 183.134 16.992 181.193 16.992C179.91 16.992 178.783 17.304 177.813 17.928C176.842 18.5173 176.079 19.436 175.525 20.684C175.005 21.8973 174.745 23.4227 174.745 25.26C174.745 27.9987 175.334 30.0787 176.513 31.5C177.691 32.8867 179.251 33.58 181.193 33.58ZM202.752 47.776C201.712 47.776 200.915 47.4987 200.36 46.944C199.806 46.3893 199.528 45.5747 199.528 44.5V15.432C199.528 14.3573 199.806 13.5427 200.36 12.988C200.915 12.4333 201.695 12.156 202.7 12.156C203.74 12.156 204.538 12.4333 205.092 12.988C205.647 13.5427 205.924 14.3573 205.924 15.432V19.488L205.352 17.928C205.872 16.16 206.93 14.7387 208.524 13.664C210.154 12.5893 212.043 12.052 214.192 12.052C216.411 12.052 218.352 12.5893 220.016 13.664C221.715 14.7387 223.032 16.264 223.968 18.24C224.904 20.1813 225.372 22.5213 225.372 25.26C225.372 27.964 224.904 30.3213 223.968 32.332C223.032 34.308 221.732 35.8333 220.068 36.908C218.404 37.9827 216.446 38.52 214.192 38.52C212.078 38.52 210.223 38 208.628 36.96C207.034 35.8853 205.959 34.4987 205.404 32.8H206.028V44.5C206.028 45.5747 205.734 46.3893 205.144 46.944C204.59 47.4987 203.792 47.776 202.752 47.776ZM212.372 33.58C213.655 33.58 214.782 33.268 215.752 32.644C216.723 32.02 217.468 31.1013 217.988 29.888C218.543 28.64 218.82 27.0973 218.82 25.26C218.82 22.4867 218.231 20.424 217.052 19.072C215.874 17.6853 214.314 16.992 212.372 16.992C211.09 16.992 209.963 17.304 208.992 17.928C208.022 18.5173 207.259 19.436 206.704 20.684C206.184 21.8973 205.924 23.4227 205.924 25.26C205.924 27.9987 206.514 30.0787 207.692 31.5C208.871 32.8867 210.431 33.58 212.372 33.58Z" fill="white"/>
</svg>
