<svg width="51" height="51" viewBox="0 0 51 51" fill="none" xmlns="http://www.w3.org/2000/svg">
<path d="M42.5 4.25C43.6272 4.25 44.7082 4.69777 45.5052 5.4948C46.3022 6.29183 46.75 7.37283 46.75 8.5V34C46.75 35.1272 46.3022 36.2082 45.5052 37.0052C44.7082 37.8022 43.6272 38.25 42.5 38.25H12.75L4.25 46.75V8.5C4.25 7.37283 4.69777 6.29183 5.4948 5.4948C6.29183 4.69777 7.37283 4.25 8.5 4.25H42.5ZM23.375 12.75V19.125H17V23.375H23.375V29.75H27.625V23.375H34V19.125H27.625V12.75H23.375Z" fill="white"/>
</svg>
