<svg width="43" height="43" viewBox="0 0 43 43" fill="none" xmlns="http://www.w3.org/2000/svg">
<path fill-rule="evenodd" clip-rule="evenodd" d="M29.8671 23.5246C32.3217 25.1908 34.0417 27.4483 34.0417 30.4583V35.8333H39.4167C40.4021 35.8333 41.2083 35.0271 41.2083 34.0417V30.4583C41.2083 26.5525 34.8121 24.2413 29.8671 23.5246Z" fill="white"/>
<path d="M16.125 21.5C20.083 21.5 23.2917 18.2914 23.2917 14.3333C23.2917 10.3753 20.083 7.16666 16.125 7.16666C12.167 7.16666 8.95834 10.3753 8.95834 14.3333C8.95834 18.2914 12.167 21.5 16.125 21.5Z" fill="white"/>
<path fill-rule="evenodd" clip-rule="evenodd" d="M26.875 21.5C30.8346 21.5 34.0417 18.2929 34.0417 14.3333C34.0417 10.3737 30.8346 7.16666 26.875 7.16666C26.0329 7.16666 25.2446 7.34582 24.4921 7.59666C26.0338 9.50338 26.8749 11.8813 26.8749 14.3333C26.8749 16.7854 26.0338 19.1633 24.4921 21.07C25.2446 21.3208 26.0329 21.5 26.875 21.5ZM16.125 23.2917C11.3412 23.2917 1.79166 25.6925 1.79166 30.4583V34.0417C1.79166 35.0271 2.59791 35.8333 3.58333 35.8333H28.6667C29.6521 35.8333 30.4583 35.0271 30.4583 34.0417V30.4583C30.4583 25.6925 20.9087 23.2917 16.125 23.2917Z" fill="white"/>
</svg>
